<svg width="112" height="27" viewBox="0 0 112 27" fill="none" xmlns="http://www.w3.org/2000/svg">
<rect width="24" height="24" fill="black"/>
<path d="M15.2081 10.1878L10.7081 7.18781C10.6516 7.15012 10.586 7.12848 10.5181 7.1252C10.4503 7.12191 10.3829 7.1371 10.323 7.16915C10.2631 7.20121 10.2131 7.24891 10.1782 7.30718C10.1434 7.36545 10.125 7.43209 10.125 7.5V13.5C10.1249 13.5679 10.1433 13.6346 10.1781 13.6928C10.213 13.7511 10.263 13.7989 10.3228 13.8309C10.3827 13.863 10.4502 13.8782 10.5181 13.8749C10.5859 13.8716 10.6516 13.8499 10.7081 13.8122L15.2081 10.8122C15.2596 10.778 15.3017 10.7315 15.3309 10.6771C15.3601 10.6226 15.3754 10.5618 15.3754 10.5C15.3754 10.4382 15.3601 10.3774 15.3309 10.3229C15.3017 10.2685 15.2596 10.222 15.2081 10.1878ZM10.875 12.7997V8.20031L14.3241 10.5L10.875 12.7997ZM20.25 4.125H3.75C3.45163 4.125 3.16548 4.24353 2.9545 4.4545C2.74353 4.66548 2.625 4.95163 2.625 5.25V15.75C2.625 16.0484 2.74353 16.3345 2.9545 16.5455C3.16548 16.7565 3.45163 16.875 3.75 16.875H20.25C20.5484 16.875 20.8345 16.7565 21.0455 16.5455C21.2565 16.3345 21.375 16.0484 21.375 15.75V5.25C21.375 4.95163 21.2565 4.66548 21.0455 4.4545C20.8345 4.24353 20.5484 4.125 20.25 4.125ZM20.625 15.75C20.625 15.8495 20.5855 15.9448 20.5152 16.0152C20.4448 16.0855 20.3495 16.125 20.25 16.125H3.75C3.65054 16.125 3.55516 16.0855 3.48484 16.0152C3.41451 15.9448 3.375 15.8495 3.375 15.75V5.25C3.375 5.15054 3.41451 5.05516 3.48484 4.98484C3.55516 4.91451 3.65054 4.875 3.75 4.875H20.25C20.3495 4.875 20.4448 4.91451 20.5152 4.98484C20.5855 5.05516 20.625 5.15054 20.625 5.25V15.75ZM21.375 19.5C21.375 19.5995 21.3355 19.6948 21.2652 19.7652C21.1948 19.8355 21.0995 19.875 21 19.875H3C2.90054 19.875 2.80516 19.8355 2.73484 19.7652C2.66451 19.6948 2.625 19.5995 2.625 19.5C2.625 19.4005 2.66451 19.3052 2.73484 19.2348C2.80516 19.1645 2.90054 19.125 3 19.125H21C21.0995 19.125 21.1948 19.1645 21.2652 19.2348C21.3355 19.3052 21.375 19.4005 21.375 19.5Z" fill="#5C006A"/>
<path d="M34.828 17.732H36.016V9.668H34.828V7.4H40.354C40.954 7.4 41.482 7.484 41.938 7.652C42.406 7.82 42.796 8.048 43.108 8.336C43.432 8.624 43.672 8.972 43.828 9.38C43.996 9.776 44.08 10.208 44.08 10.676V10.892C44.08 11.612 43.876 12.188 43.468 12.62C43.072 13.052 42.568 13.352 41.956 13.52V13.844C42.568 14.012 43.072 14.318 43.468 14.762C43.876 15.194 44.08 15.77 44.08 16.49V16.706C44.08 17.174 43.996 17.612 43.828 18.02C43.672 18.416 43.432 18.764 43.108 19.064C42.796 19.352 42.406 19.58 41.938 19.748C41.482 19.916 40.954 20 40.354 20H34.828V17.732ZM38.392 17.732H40.12C40.624 17.732 41.032 17.624 41.344 17.408C41.656 17.192 41.812 16.832 41.812 16.328V16.22C41.812 15.716 41.656 15.356 41.344 15.14C41.032 14.924 40.624 14.816 40.12 14.816H38.392V17.732ZM38.392 12.548H40.12C40.624 12.548 41.032 12.446 41.344 12.242C41.656 12.026 41.812 11.666 41.812 11.162V11.054C41.812 10.55 41.656 10.196 41.344 9.992C41.032 9.776 40.624 9.668 40.12 9.668H38.392V12.548ZM46.3175 7.4H54.7415V9.668H51.7175V17.732H54.7415V20H46.3175V17.732H49.3415V9.668H46.3175V7.4ZM57.015 7.4H66.087V9.668H62.739V20H60.363V9.668H57.015V7.4ZM67.8925 17.732H69.0805V9.668H67.8925V7.4H73.4185C74.0185 7.4 74.5465 7.484 75.0025 7.652C75.4705 7.82 75.8605 8.048 76.1725 8.336C76.4965 8.624 76.7365 8.972 76.8925 9.38C77.0605 9.776 77.1445 10.208 77.1445 10.676V10.892C77.1445 11.612 76.9405 12.188 76.5325 12.62C76.1365 13.052 75.6325 13.352 75.0205 13.52V13.844C75.6325 14.012 76.1365 14.318 76.5325 14.762C76.9405 15.194 77.1445 15.77 77.1445 16.49V16.706C77.1445 17.174 77.0605 17.612 76.8925 18.02C76.7365 18.416 76.4965 18.764 76.1725 19.064C75.8605 19.352 75.4705 19.58 75.0025 19.748C74.5465 19.916 74.0185 20 73.4185 20H67.8925V17.732ZM71.4565 17.732H73.1845C73.6885 17.732 74.0965 17.624 74.4085 17.408C74.7205 17.192 74.8765 16.832 74.8765 16.328V16.22C74.8765 15.716 74.7205 15.356 74.4085 15.14C74.0965 14.924 73.6885 14.816 73.1845 14.816H71.4565V17.732ZM71.4565 12.548H73.1845C73.6885 12.548 74.0965 12.446 74.4085 12.242C74.7205 12.026 74.8765 11.666 74.8765 11.162V11.054C74.8765 10.55 74.7205 10.196 74.4085 9.992C74.0965 9.776 73.6885 9.668 73.1845 9.668H71.4565V12.548ZM88.1299 7.4V15.644C88.1299 17.084 87.7459 18.212 86.9779 19.028C86.2219 19.844 85.0939 20.252 83.5939 20.252C82.0939 20.252 80.9599 19.844 80.1919 19.028C79.4359 18.212 79.0579 17.084 79.0579 15.644V7.4H81.4339V15.644C81.4339 16.388 81.6079 16.97 81.9559 17.39C82.3039 17.81 82.8499 18.02 83.5939 18.02C84.3379 18.02 84.8839 17.81 85.2319 17.39C85.5799 16.97 85.7539 16.388 85.7539 15.644V7.4H88.1299ZM90.0614 7.4H99.0254V11.288L91.8974 17.408V17.732H99.2414V20H89.9534V16.112L97.0814 9.992V9.668H90.0614V7.4ZM101.083 7.4H110.047V11.288L102.919 17.408V17.732H110.263V20H100.975V16.112L108.103 9.992V9.668H101.083V7.4Z" fill="#5C006A"/>
</svg>
