<svg width="25" height="24" viewBox="0 0 25 24" fill="none" xmlns="http://www.w3.org/2000/svg">
<path d="M24.5 2.92246C23.6013 3.41012 22.648 3.73023 21.6719 3.87212C22.6887 3.12571 23.4693 1.94374 23.8369 0.535432C22.8704 1.23796 21.8129 1.73294 20.7103 1.99897C19.812 0.826877 18.5324 0.0943604 17.1162 0.0943604C14.3968 0.0943604 12.1921 2.79476 12.1921 6.12537C12.1921 6.59813 12.2357 7.05838 12.3196 7.49991C8.22744 7.24831 4.59931 4.84728 2.17072 1.19836C1.74697 2.08912 1.50416 3.12525 1.50416 4.2304C1.50416 6.32288 2.3735 8.16881 3.69462 9.25042C2.9127 9.22042 2.14798 8.96174 1.46431 8.49597C1.46403 8.52123 1.46403 8.5465 1.46403 8.57187C1.46403 11.494 3.16128 13.9317 5.41372 14.4857C4.68864 14.7273 3.92809 14.7626 3.19016 14.5891C3.81669 16.9852 5.63516 18.7288 7.78972 18.7776C6.10456 20.3951 3.98141 21.3594 1.67459 21.3594C1.27709 21.3594 0.885219 21.3308 0.5 21.2751C2.67903 22.9863 5.26719 23.9848 8.04781 23.9848C17.1047 23.9848 22.0573 14.7946 22.0573 6.82481C22.0573 6.56322 22.0526 6.30313 22.043 6.04452C23.007 5.19096 23.839 4.13373 24.5 2.92246Z" fill="#55ACEE"/>
</svg>
